<?xml version="1.0" standalone="no"?>
<svg width="567.429" height="392.465" viewBox="0 0 567.429 392.465" xmlns="http://www.w3.org/2000/svg" shape-rendering="crispEdges">
<title>
/Users/4s2/celeritas-project/g4-sandbox_analysis/pythia/analysis/stepsPerTrack.svg
</title>
<desc>
Creator: ROOT Version 6.18/04
CreationDate: Fri Apr 17 15:36:02 2020</desc>
<defs>
</defs>
<rect x="0.5" y="0" width="566.929" height="391.965" fill="#fefefe"/>
<rect x="57.1929" y="39.1965" width="453.543" height="313.572" fill="#fefefe"/>
<rect x="57.1929" y="39.1965" width="453.543" height="313.572" fill="none" stroke="black"/>
<rect x="57.1929" y="39.1965" width="453.543" height="313.572" fill="#fefefe"/>
<rect x="57.1929" y="39.1965" width="453.543" height="313.572" fill="none" stroke="black"/>
<path d="M57.761,352.2v -301.851h 3.96737v 78.6502h 4.53543v 17.2698h 4.53543v 20.6006h 4.53543v 15.6287h 4.53543v 15.4056h 4.53543v 15.9228h 4.53543v 13.8626h 4.53543v 13.7332h 4.53543v 7.95575h 4.53543v 10.408h 4.53543v 7.24641h 4.53543v 6.07862h
 4.53543v 9.40653h 4.53543v -2.33038h 4.53543v 9.09764h 4.53543v 0.943577h 4.53543v 0.997524h 4.53543v 1.05802h 4.53543v 14.4271h 4.53543v -7.88801h 4.53543v 13.7601h 4.53543v -3.18186h 4.53543v 3.18186h 4.53543v -15.2786h 4.53543v 9.40653h 4.53543v
 9.76637h 9.07087v -12.0968h 4.53543v 24.1935h 9.07087v -12.0968h 4.53543v 24.1935h 4.53543v -36.2903h 4.53543v 24.1935h 4.53543v 12.0968h 4.53543v 11.5287h 258.52v -11.5287h 4.53543v 11.5287h 27.2126" fill="none" stroke="#59d354" stroke-width="2"/>
<path d="M57.1929,352.769h 453.543" fill="none" stroke="black"/>
<path d="M57.1929,343.361v 9.40716" fill="none" stroke="black"/>
<path d="M76.0906,348.065v 4.70358" fill="none" stroke="black"/>
<path d="M94.9882,348.065v 4.70358" fill="none" stroke="black"/>
<path d="M113.886,348.065v 4.70358" fill="none" stroke="black"/>
<path d="M132.783,343.361v 9.40716" fill="none" stroke="black"/>
<path d="M151.681,348.065v 4.70358" fill="none" stroke="black"/>
<path d="M170.579,348.065v 4.70358" fill="none" stroke="black"/>
<path d="M189.476,348.065v 4.70358" fill="none" stroke="black"/>
<path d="M208.374,343.361v 9.40716" fill="none" stroke="black"/>
<path d="M227.272,348.065v 4.70358" fill="none" stroke="black"/>
<path d="M246.169,348.065v 4.70358" fill="none" stroke="black"/>
<path d="M265.067,348.065v 4.70358" fill="none" stroke="black"/>
<path d="M283.965,343.361v 9.40716" fill="none" stroke="black"/>
<path d="M302.862,348.065v 4.70358" fill="none" stroke="black"/>
<path d="M321.76,348.065v 4.70358" fill="none" stroke="black"/>
<path d="M340.657,348.065v 4.70358" fill="none" stroke="black"/>
<path d="M359.555,343.361v 9.40716" fill="none" stroke="black"/>
<path d="M378.453,348.065v 4.70358" fill="none" stroke="black"/>
<path d="M397.35,348.065v 4.70358" fill="none" stroke="black"/>
<path d="M416.248,348.065v 4.70358" fill="none" stroke="black"/>
<path d="M435.146,343.361v 9.40716" fill="none" stroke="black"/>
<path d="M454.043,348.065v 4.70358" fill="none" stroke="black"/>
<path d="M472.941,348.065v 4.70358" fill="none" stroke="black"/>
<path d="M491.839,348.065v 4.70358" fill="none" stroke="black"/>
<path d="M510.736,343.361v 9.40716" fill="none" stroke="black"/>
<text xml:space="preserve" x="52.762" y="366.97" fill="black" font-size="14.884" font-family="Helvetica">0</text>
<text xml:space="preserve" x="128.315" y="366.97" fill="black" font-size="14.884" font-family="Helvetica">2</text>
<text xml:space="preserve" x="203.867" y="366.97" fill="black" font-size="14.884" font-family="Helvetica">4</text>
<text xml:space="preserve" x="279.988" y="366.97" fill="black" font-size="14.884" font-family="Helvetica">6</text>
<text xml:space="preserve" x="355.541" y="366.97" fill="black" font-size="14.884" font-family="Helvetica">8</text>
<text xml:space="preserve" x="427.117" y="366.97" fill="black" font-size="14.884" font-family="Helvetica">10</text>
<text xml:space="preserve" x="502.67" y="366.97" fill="black" font-size="14.884" font-family="Helvetica">12</text>
<text xml:space="preserve" x="536.754" y="345.384" fill="black" font-size="10.0894" font-family="Helvetica">3</text>
<text xml:space="preserve" x="520.848" y="352.769" fill="black" font-size="14.884" font-family="Helvetica">10</text>
<text xml:space="preserve" x="512.895" y="352.769" fill="black" font-size="14.884" font-family="Times">&#0215;</text>
<text xml:space="preserve" x="216.933" y="385.716" fill="black" font-size="20.278" font-family="Helvetica">Steps per track</text>
<path d="M57.1929,39.1965h 453.543" fill="none" stroke="black"/>
<path d="M57.1929,48.6037v -9.40716" fill="none" stroke="black"/>
<path d="M76.0906,43.9001v -4.70358" fill="none" stroke="black"/>
<path d="M94.9882,43.9001v -4.70358" fill="none" stroke="black"/>
<path d="M113.886,43.9001v -4.70358" fill="none" stroke="black"/>
<path d="M132.783,48.6037v -9.40716" fill="none" stroke="black"/>
<path d="M151.681,43.9001v -4.70358" fill="none" stroke="black"/>
<path d="M170.579,43.9001v -4.70358" fill="none" stroke="black"/>
<path d="M189.476,43.9001v -4.70358" fill="none" stroke="black"/>
<path d="M208.374,48.6037v -9.40716" fill="none" stroke="black"/>
<path d="M227.272,43.9001v -4.70358" fill="none" stroke="black"/>
<path d="M246.169,43.9001v -4.70358" fill="none" stroke="black"/>
<path d="M265.067,43.9001v -4.70358" fill="none" stroke="black"/>
<path d="M283.965,48.6037v -9.40716" fill="none" stroke="black"/>
<path d="M302.862,43.9001v -4.70358" fill="none" stroke="black"/>
<path d="M321.76,43.9001v -4.70358" fill="none" stroke="black"/>
<path d="M340.657,43.9001v -4.70358" fill="none" stroke="black"/>
<path d="M359.555,48.6037v -9.40716" fill="none" stroke="black"/>
<path d="M378.453,43.9001v -4.70358" fill="none" stroke="black"/>
<path d="M397.35,43.9001v -4.70358" fill="none" stroke="black"/>
<path d="M416.248,43.9001v -4.70358" fill="none" stroke="black"/>
<path d="M435.146,48.6037v -9.40716" fill="none" stroke="black"/>
<path d="M454.043,43.9001v -4.70358" fill="none" stroke="black"/>
<path d="M472.941,43.9001v -4.70358" fill="none" stroke="black"/>
<path d="M491.839,43.9001v -4.70358" fill="none" stroke="black"/>
<path d="M510.736,48.6037v -9.40716" fill="none" stroke="black"/>
<path d="M57.1929,352.769v -313.572" fill="none" stroke="black"/>
<path d="M63.9961,352.768h -6.80315" fill="none" stroke="black"/>
<path d="M63.9961,349.587h -6.80315" fill="none" stroke="black"/>
<path d="M63.9961,346.896h -6.80315" fill="none" stroke="black"/>
<path d="M63.9961,344.566h -6.80315" fill="none" stroke="black"/>
<path d="M63.9961,342.51h -6.80315" fill="none" stroke="black"/>
<path d="M70.7992,340.672h -13.6063" fill="none" stroke="black"/>
<text xml:space="preserve" x="46.5133" y="345.952" fill="black" font-size="14.884" font-family="Helvetica">1</text>
<path d="M63.9961,328.575h -6.80315" fill="none" stroke="black"/>
<path d="M63.9961,321.499h -6.80315" fill="none" stroke="black"/>
<path d="M63.9961,316.478h -6.80315" fill="none" stroke="black"/>
<path d="M63.9961,312.584h -6.80315" fill="none" stroke="black"/>
<path d="M63.9961,309.402h -6.80315" fill="none" stroke="black"/>
<path d="M63.9961,306.712h -6.80315" fill="none" stroke="black"/>
<path d="M63.9961,304.381h -6.80315" fill="none" stroke="black"/>
<path d="M63.9961,302.326h -6.80315" fill="none" stroke="black"/>
<path d="M70.7992,300.487h -13.6063" fill="none" stroke="black"/>
<text xml:space="preserve" x="36.2881" y="305.619" fill="black" font-size="14.884" font-family="Helvetica">10</text>
<path d="M63.9961,288.39h -6.80315" fill="none" stroke="black"/>
<path d="M63.9961,281.314h -6.80315" fill="none" stroke="black"/>
<path d="M63.9961,276.294h -6.80315" fill="none" stroke="black"/>
<path d="M63.9961,272.399h -6.80315" fill="none" stroke="black"/>
<path d="M63.9961,269.218h -6.80315" fill="none" stroke="black"/>
<path d="M63.9961,266.527h -6.80315" fill="none" stroke="black"/>
<path d="M63.9961,264.197h -6.80315" fill="none" stroke="black"/>
<path d="M63.9961,262.141h -6.80315" fill="none" stroke="black"/>
<path d="M70.7992,260.303h -13.6063" fill="none" stroke="black"/>
<text xml:space="preserve" x="47.0814" y="260.742" fill="black" font-size="10.0894" font-family="Helvetica">2</text>
<text xml:space="preserve" x="31.1755" y="266.991" fill="black" font-size="14.884" font-family="Helvetica">10</text>
<path d="M63.9961,248.206h -6.80315" fill="none" stroke="black"/>
<path d="M63.9961,241.13h -6.80315" fill="none" stroke="black"/>
<path d="M63.9961,236.109h -6.80315" fill="none" stroke="black"/>
<path d="M63.9961,232.215h -6.80315" fill="none" stroke="black"/>
<path d="M63.9961,229.033h -6.80315" fill="none" stroke="black"/>
<path d="M63.9961,226.343h -6.80315" fill="none" stroke="black"/>
<path d="M63.9961,224.012h -6.80315" fill="none" stroke="black"/>
<path d="M63.9961,221.957h -6.80315" fill="none" stroke="black"/>
<path d="M70.7992,220.118h -13.6063" fill="none" stroke="black"/>
<text xml:space="preserve" x="47.0814" y="219.841" fill="black" font-size="10.0894" font-family="Helvetica">3</text>
<text xml:space="preserve" x="31.1755" y="226.658" fill="black" font-size="14.884" font-family="Helvetica">10</text>
<path d="M63.9961,208.021h -6.80315" fill="none" stroke="black"/>
<path d="M63.9961,200.945h -6.80315" fill="none" stroke="black"/>
<path d="M63.9961,195.925h -6.80315" fill="none" stroke="black"/>
<path d="M63.9961,192.03h -6.80315" fill="none" stroke="black"/>
<path d="M63.9961,188.848h -6.80315" fill="none" stroke="black"/>
<path d="M63.9961,186.158h -6.80315" fill="none" stroke="black"/>
<path d="M63.9961,183.828h -6.80315" fill="none" stroke="black"/>
<path d="M63.9961,181.772h -6.80315" fill="none" stroke="black"/>
<path d="M70.7992,179.934h -13.6063" fill="none" stroke="black"/>
<text xml:space="preserve" x="47.0814" y="180.077" fill="black" font-size="10.0894" font-family="Helvetica">4</text>
<text xml:space="preserve" x="31.1755" y="186.325" fill="black" font-size="14.884" font-family="Helvetica">10</text>
<path d="M63.9961,167.837h -6.80315" fill="none" stroke="black"/>
<path d="M63.9961,160.761h -6.80315" fill="none" stroke="black"/>
<path d="M63.9961,155.74h -6.80315" fill="none" stroke="black"/>
<path d="M63.9961,151.846h -6.80315" fill="none" stroke="black"/>
<path d="M63.9961,148.664h -6.80315" fill="none" stroke="black"/>
<path d="M63.9961,145.974h -6.80315" fill="none" stroke="black"/>
<path d="M63.9961,143.643h -6.80315" fill="none" stroke="black"/>
<path d="M63.9961,141.588h -6.80315" fill="none" stroke="black"/>
<path d="M70.7992,139.749h -13.6063" fill="none" stroke="black"/>
<text xml:space="preserve" x="47.0814" y="139.744" fill="black" font-size="10.0894" font-family="Helvetica">5</text>
<text xml:space="preserve" x="31.1755" y="146.561" fill="black" font-size="14.884" font-family="Helvetica">10</text>
<path d="M63.9961,127.652h -6.80315" fill="none" stroke="black"/>
<path d="M63.9961,120.576h -6.80315" fill="none" stroke="black"/>
<path d="M63.9961,115.556h -6.80315" fill="none" stroke="black"/>
<path d="M63.9961,111.661h -6.80315" fill="none" stroke="black"/>
<path d="M63.9961,108.479h -6.80315" fill="none" stroke="black"/>
<path d="M63.9961,105.789h -6.80315" fill="none" stroke="black"/>
<path d="M63.9961,103.459h -6.80315" fill="none" stroke="black"/>
<path d="M63.9961,101.403h -6.80315" fill="none" stroke="black"/>
<path d="M70.7992,99.5645h -13.6063" fill="none" stroke="black"/>
<text xml:space="preserve" x="47.0814" y="99.4114" fill="black" font-size="10.0894" font-family="Helvetica">6</text>
<text xml:space="preserve" x="31.1755" y="106.228" fill="black" font-size="14.884" font-family="Helvetica">10</text>
<path d="M63.9961,87.4677h -6.80315" fill="none" stroke="black"/>
<path d="M63.9961,80.3916h -6.80315" fill="none" stroke="black"/>
<path d="M63.9961,75.371h -6.80315" fill="none" stroke="black"/>
<path d="M63.9961,71.4767h -6.80315" fill="none" stroke="black"/>
<path d="M63.9961,68.2948h -6.80315" fill="none" stroke="black"/>
<path d="M63.9961,65.6046h -6.80315" fill="none" stroke="black"/>
<path d="M63.9961,63.2742h -6.80315" fill="none" stroke="black"/>
<path d="M63.9961,61.2187h -6.80315" fill="none" stroke="black"/>
<path d="M70.7992,59.3799h -13.6063" fill="none" stroke="black"/>
<text xml:space="preserve" x="47.0814" y="59.6469" fill="black" font-size="10.0894" font-family="Helvetica">7</text>
<text xml:space="preserve" x="31.1755" y="65.8956" fill="black" font-size="14.884" font-family="Helvetica">10</text>
<path d="M63.9961,47.2832h -6.80315" fill="none" stroke="black"/>
<path d="M63.9961,40.207h -6.80315" fill="none" stroke="black"/>
<g transform="rotate(-90,22.0865,281.76)">
<text xml:space="preserve" x="22.0865" y="281.76" fill="black" font-size="20.278" font-family="Helvetica">Number of particles</text>
</g>
<path d="M510.736,352.769v -313.572" fill="none" stroke="black"/>
<path d="M503.933,352.768h 6.80315" fill="none" stroke="black"/>
<path d="M503.933,349.587h 6.80315" fill="none" stroke="black"/>
<path d="M503.933,346.896h 6.80315" fill="none" stroke="black"/>
<path d="M503.933,344.566h 6.80315" fill="none" stroke="black"/>
<path d="M503.933,342.51h 6.80315" fill="none" stroke="black"/>
<path d="M497.13,340.672h 13.6063" fill="none" stroke="black"/>
<path d="M503.933,328.575h 6.80315" fill="none" stroke="black"/>
<path d="M503.933,321.499h 6.80315" fill="none" stroke="black"/>
<path d="M503.933,316.478h 6.80315" fill="none" stroke="black"/>
<path d="M503.933,312.584h 6.80315" fill="none" stroke="black"/>
<path d="M503.933,309.402h 6.80315" fill="none" stroke="black"/>
<path d="M503.933,306.712h 6.80315" fill="none" stroke="black"/>
<path d="M503.933,304.381h 6.80315" fill="none" stroke="black"/>
<path d="M503.933,302.326h 6.80315" fill="none" stroke="black"/>
<path d="M497.13,300.487h 13.6063" fill="none" stroke="black"/>
<path d="M503.933,288.39h 6.80315" fill="none" stroke="black"/>
<path d="M503.933,281.314h 6.80315" fill="none" stroke="black"/>
<path d="M503.933,276.294h 6.80315" fill="none" stroke="black"/>
<path d="M503.933,272.399h 6.80315" fill="none" stroke="black"/>
<path d="M503.933,269.218h 6.80315" fill="none" stroke="black"/>
<path d="M503.933,266.527h 6.80315" fill="none" stroke="black"/>
<path d="M503.933,264.197h 6.80315" fill="none" stroke="black"/>
<path d="M503.933,262.141h 6.80315" fill="none" stroke="black"/>
<path d="M497.13,260.303h 13.6063" fill="none" stroke="black"/>
<path d="M503.933,248.206h 6.80315" fill="none" stroke="black"/>
<path d="M503.933,241.13h 6.80315" fill="none" stroke="black"/>
<path d="M503.933,236.109h 6.80315" fill="none" stroke="black"/>
<path d="M503.933,232.215h 6.80315" fill="none" stroke="black"/>
<path d="M503.933,229.033h 6.80315" fill="none" stroke="black"/>
<path d="M503.933,226.343h 6.80315" fill="none" stroke="black"/>
<path d="M503.933,224.012h 6.80315" fill="none" stroke="black"/>
<path d="M503.933,221.957h 6.80315" fill="none" stroke="black"/>
<path d="M497.13,220.118h 13.6063" fill="none" stroke="black"/>
<path d="M503.933,208.021h 6.80315" fill="none" stroke="black"/>
<path d="M503.933,200.945h 6.80315" fill="none" stroke="black"/>
<path d="M503.933,195.925h 6.80315" fill="none" stroke="black"/>
<path d="M503.933,192.03h 6.80315" fill="none" stroke="black"/>
<path d="M503.933,188.848h 6.80315" fill="none" stroke="black"/>
<path d="M503.933,186.158h 6.80315" fill="none" stroke="black"/>
<path d="M503.933,183.828h 6.80315" fill="none" stroke="black"/>
<path d="M503.933,181.772h 6.80315" fill="none" stroke="black"/>
<path d="M497.13,179.934h 13.6063" fill="none" stroke="black"/>
<path d="M503.933,167.837h 6.80315" fill="none" stroke="black"/>
<path d="M503.933,160.761h 6.80315" fill="none" stroke="black"/>
<path d="M503.933,155.74h 6.80315" fill="none" stroke="black"/>
<path d="M503.933,151.846h 6.80315" fill="none" stroke="black"/>
<path d="M503.933,148.664h 6.80315" fill="none" stroke="black"/>
<path d="M503.933,145.974h 6.80315" fill="none" stroke="black"/>
<path d="M503.933,143.643h 6.80315" fill="none" stroke="black"/>
<path d="M503.933,141.588h 6.80315" fill="none" stroke="black"/>
<path d="M497.13,139.749h 13.6063" fill="none" stroke="black"/>
<path d="M503.933,127.652h 6.80315" fill="none" stroke="black"/>
<path d="M503.933,120.576h 6.80315" fill="none" stroke="black"/>
<path d="M503.933,115.556h 6.80315" fill="none" stroke="black"/>
<path d="M503.933,111.661h 6.80315" fill="none" stroke="black"/>
<path d="M503.933,108.479h 6.80315" fill="none" stroke="black"/>
<path d="M503.933,105.789h 6.80315" fill="none" stroke="black"/>
<path d="M503.933,103.459h 6.80315" fill="none" stroke="black"/>
<path d="M503.933,101.403h 6.80315" fill="none" stroke="black"/>
<path d="M497.13,99.5645h 13.6063" fill="none" stroke="black"/>
<path d="M503.933,87.4677h 6.80315" fill="none" stroke="black"/>
<path d="M503.933,80.3916h 6.80315" fill="none" stroke="black"/>
<path d="M503.933,75.371h 6.80315" fill="none" stroke="black"/>
<path d="M503.933,71.4767h 6.80315" fill="none" stroke="black"/>
<path d="M503.933,68.2948h 6.80315" fill="none" stroke="black"/>
<path d="M503.933,65.6046h 6.80315" fill="none" stroke="black"/>
<path d="M503.933,63.2742h 6.80315" fill="none" stroke="black"/>
<path d="M503.933,61.2187h 6.80315" fill="none" stroke="black"/>
<path d="M497.13,59.3799h 13.6063" fill="none" stroke="black"/>
<path d="M503.933,47.2832h 6.80315" fill="none" stroke="black"/>
<path d="M503.933,40.207h 6.80315" fill="none" stroke="black"/>
<path d="M57.761,352.2v -301.851h 3.96737v 116.74h 4.53543v 20.1247h 4.53543v 17.0249h 4.53543v 14.7636h 4.53543v 10.9868h 4.53543v 7.81355h 4.53543v 7.66282h 4.53543v 15.7319h 4.53543v 4.59714h 4.53543v 0.983467h 4.53543v 5.62098h 4.53543v 4.78945h
 4.53543v 7.3073h 4.53543v -7.3073h 4.53543v -0.895167h 4.53543v 0.895167h 4.53543v 0.465412h 4.53543v -0.918735h 4.53543v 3.45244h 4.53543v 10.0412h 4.53543v 0.997524h 4.53543v 3.3884h 4.53543v -2.33038h 4.53543v -10.9704h 4.53543v 4.63703h 4.53543v
 14.5359h 4.53543v 8.91489h 4.53543v -5.02061h 4.53543v 12.0968h 9.07087v -9.76637h 4.53543v -2.33038h 4.53543v -7.07615h 4.53543v 3.18186h 4.53543v -13.7601h 4.53543v 12.0968h 4.53543v 29.7511h 4.53543v -12.0968h 4.53543v 24.1935h 4.53543v 11.5287h
 22.6772v -11.5287h 4.53543v 11.5287h 244.913" fill="none" stroke="#5954d8" stroke-width="2"/>
<text xml:space="preserve" x="350.428" y="72.7123" fill="black" font-size="10.8259" font-family="Helvetica">Full (FTFP_BERT)</text>
<path d="M308.413,68.5939h 34.7244" fill="none" stroke="#59d354" stroke-width="2"/>
<text xml:space="preserve" x="350.428" y="92.5946" fill="black" font-size="10.8259" font-family="Helvetica">EM (G4EmStandardPhysics)</text>
<path d="M308.413,88.1921h 34.7244" fill="none" stroke="#5954d8" stroke-width="2"/>
<text xml:space="preserve" x="56.7385" y="26.131" fill="black" font-size="24.4734" font-family="Helvetica">CMS Pythia 8</text>
<path d="M57.1929,352.769h 453.543" fill="none" stroke="black"/>
<path d="M57.1929,343.361v 9.40716" fill="none" stroke="black"/>
<path d="M76.0906,348.065v 4.70358" fill="none" stroke="black"/>
<path d="M94.9882,348.065v 4.70358" fill="none" stroke="black"/>
<path d="M113.886,348.065v 4.70358" fill="none" stroke="black"/>
<path d="M132.783,343.361v 9.40716" fill="none" stroke="black"/>
<path d="M151.681,348.065v 4.70358" fill="none" stroke="black"/>
<path d="M170.579,348.065v 4.70358" fill="none" stroke="black"/>
<path d="M189.476,348.065v 4.70358" fill="none" stroke="black"/>
<path d="M208.374,343.361v 9.40716" fill="none" stroke="black"/>
<path d="M227.272,348.065v 4.70358" fill="none" stroke="black"/>
<path d="M246.169,348.065v 4.70358" fill="none" stroke="black"/>
<path d="M265.067,348.065v 4.70358" fill="none" stroke="black"/>
<path d="M283.965,343.361v 9.40716" fill="none" stroke="black"/>
<path d="M302.862,348.065v 4.70358" fill="none" stroke="black"/>
<path d="M321.76,348.065v 4.70358" fill="none" stroke="black"/>
<path d="M340.657,348.065v 4.70358" fill="none" stroke="black"/>
<path d="M359.555,343.361v 9.40716" fill="none" stroke="black"/>
<path d="M378.453,348.065v 4.70358" fill="none" stroke="black"/>
<path d="M397.35,348.065v 4.70358" fill="none" stroke="black"/>
<path d="M416.248,348.065v 4.70358" fill="none" stroke="black"/>
<path d="M435.146,343.361v 9.40716" fill="none" stroke="black"/>
<path d="M454.043,348.065v 4.70358" fill="none" stroke="black"/>
<path d="M472.941,348.065v 4.70358" fill="none" stroke="black"/>
<path d="M491.839,348.065v 4.70358" fill="none" stroke="black"/>
<path d="M510.736,343.361v 9.40716" fill="none" stroke="black"/>
<path d="M57.1929,39.1965h 453.543" fill="none" stroke="black"/>
<path d="M57.1929,48.6037v -9.40716" fill="none" stroke="black"/>
<path d="M76.0906,43.9001v -4.70358" fill="none" stroke="black"/>
<path d="M94.9882,43.9001v -4.70358" fill="none" stroke="black"/>
<path d="M113.886,43.9001v -4.70358" fill="none" stroke="black"/>
<path d="M132.783,48.6037v -9.40716" fill="none" stroke="black"/>
<path d="M151.681,43.9001v -4.70358" fill="none" stroke="black"/>
<path d="M170.579,43.9001v -4.70358" fill="none" stroke="black"/>
<path d="M189.476,43.9001v -4.70358" fill="none" stroke="black"/>
<path d="M208.374,48.6037v -9.40716" fill="none" stroke="black"/>
<path d="M227.272,43.9001v -4.70358" fill="none" stroke="black"/>
<path d="M246.169,43.9001v -4.70358" fill="none" stroke="black"/>
<path d="M265.067,43.9001v -4.70358" fill="none" stroke="black"/>
<path d="M283.965,48.6037v -9.40716" fill="none" stroke="black"/>
<path d="M302.862,43.9001v -4.70358" fill="none" stroke="black"/>
<path d="M321.76,43.9001v -4.70358" fill="none" stroke="black"/>
<path d="M340.657,43.9001v -4.70358" fill="none" stroke="black"/>
<path d="M359.555,48.6037v -9.40716" fill="none" stroke="black"/>
<path d="M378.453,43.9001v -4.70358" fill="none" stroke="black"/>
<path d="M397.35,43.9001v -4.70358" fill="none" stroke="black"/>
<path d="M416.248,43.9001v -4.70358" fill="none" stroke="black"/>
<path d="M435.146,48.6037v -9.40716" fill="none" stroke="black"/>
<path d="M454.043,43.9001v -4.70358" fill="none" stroke="black"/>
<path d="M472.941,43.9001v -4.70358" fill="none" stroke="black"/>
<path d="M491.839,43.9001v -4.70358" fill="none" stroke="black"/>
<path d="M510.736,48.6037v -9.40716" fill="none" stroke="black"/>
<path d="M57.1929,352.769v -313.572" fill="none" stroke="black"/>
<path d="M63.9961,352.768h -6.80315" fill="none" stroke="black"/>
<path d="M63.9961,349.587h -6.80315" fill="none" stroke="black"/>
<path d="M63.9961,346.896h -6.80315" fill="none" stroke="black"/>
<path d="M63.9961,344.566h -6.80315" fill="none" stroke="black"/>
<path d="M63.9961,342.51h -6.80315" fill="none" stroke="black"/>
<path d="M70.7992,340.672h -13.6063" fill="none" stroke="black"/>
<path d="M63.9961,328.575h -6.80315" fill="none" stroke="black"/>
<path d="M63.9961,321.499h -6.80315" fill="none" stroke="black"/>
<path d="M63.9961,316.478h -6.80315" fill="none" stroke="black"/>
<path d="M63.9961,312.584h -6.80315" fill="none" stroke="black"/>
<path d="M63.9961,309.402h -6.80315" fill="none" stroke="black"/>
<path d="M63.9961,306.712h -6.80315" fill="none" stroke="black"/>
<path d="M63.9961,304.381h -6.80315" fill="none" stroke="black"/>
<path d="M63.9961,302.326h -6.80315" fill="none" stroke="black"/>
<path d="M70.7992,300.487h -13.6063" fill="none" stroke="black"/>
<path d="M63.9961,288.39h -6.80315" fill="none" stroke="black"/>
<path d="M63.9961,281.314h -6.80315" fill="none" stroke="black"/>
<path d="M63.9961,276.294h -6.80315" fill="none" stroke="black"/>
<path d="M63.9961,272.399h -6.80315" fill="none" stroke="black"/>
<path d="M63.9961,269.218h -6.80315" fill="none" stroke="black"/>
<path d="M63.9961,266.527h -6.80315" fill="none" stroke="black"/>
<path d="M63.9961,264.197h -6.80315" fill="none" stroke="black"/>
<path d="M63.9961,262.141h -6.80315" fill="none" stroke="black"/>
<path d="M70.7992,260.303h -13.6063" fill="none" stroke="black"/>
<path d="M63.9961,248.206h -6.80315" fill="none" stroke="black"/>
<path d="M63.9961,241.13h -6.80315" fill="none" stroke="black"/>
<path d="M63.9961,236.109h -6.80315" fill="none" stroke="black"/>
<path d="M63.9961,232.215h -6.80315" fill="none" stroke="black"/>
<path d="M63.9961,229.033h -6.80315" fill="none" stroke="black"/>
<path d="M63.9961,226.343h -6.80315" fill="none" stroke="black"/>
<path d="M63.9961,224.012h -6.80315" fill="none" stroke="black"/>
<path d="M63.9961,221.957h -6.80315" fill="none" stroke="black"/>
<path d="M70.7992,220.118h -13.6063" fill="none" stroke="black"/>
<path d="M63.9961,208.021h -6.80315" fill="none" stroke="black"/>
<path d="M63.9961,200.945h -6.80315" fill="none" stroke="black"/>
<path d="M63.9961,195.925h -6.80315" fill="none" stroke="black"/>
<path d="M63.9961,192.03h -6.80315" fill="none" stroke="black"/>
<path d="M63.9961,188.848h -6.80315" fill="none" stroke="black"/>
<path d="M63.9961,186.158h -6.80315" fill="none" stroke="black"/>
<path d="M63.9961,183.828h -6.80315" fill="none" stroke="black"/>
<path d="M63.9961,181.772h -6.80315" fill="none" stroke="black"/>
<path d="M70.7992,179.934h -13.6063" fill="none" stroke="black"/>
<path d="M63.9961,167.837h -6.80315" fill="none" stroke="black"/>
<path d="M63.9961,160.761h -6.80315" fill="none" stroke="black"/>
<path d="M63.9961,155.74h -6.80315" fill="none" stroke="black"/>
<path d="M63.9961,151.846h -6.80315" fill="none" stroke="black"/>
<path d="M63.9961,148.664h -6.80315" fill="none" stroke="black"/>
<path d="M63.9961,145.974h -6.80315" fill="none" stroke="black"/>
<path d="M63.9961,143.643h -6.80315" fill="none" stroke="black"/>
<path d="M63.9961,141.588h -6.80315" fill="none" stroke="black"/>
<path d="M70.7992,139.749h -13.6063" fill="none" stroke="black"/>
<path d="M63.9961,127.652h -6.80315" fill="none" stroke="black"/>
<path d="M63.9961,120.576h -6.80315" fill="none" stroke="black"/>
<path d="M63.9961,115.556h -6.80315" fill="none" stroke="black"/>
<path d="M63.9961,111.661h -6.80315" fill="none" stroke="black"/>
<path d="M63.9961,108.479h -6.80315" fill="none" stroke="black"/>
<path d="M63.9961,105.789h -6.80315" fill="none" stroke="black"/>
<path d="M63.9961,103.459h -6.80315" fill="none" stroke="black"/>
<path d="M63.9961,101.403h -6.80315" fill="none" stroke="black"/>
<path d="M70.7992,99.5645h -13.6063" fill="none" stroke="black"/>
<path d="M63.9961,87.4677h -6.80315" fill="none" stroke="black"/>
<path d="M63.9961,80.3916h -6.80315" fill="none" stroke="black"/>
<path d="M63.9961,75.371h -6.80315" fill="none" stroke="black"/>
<path d="M63.9961,71.4767h -6.80315" fill="none" stroke="black"/>
<path d="M63.9961,68.2948h -6.80315" fill="none" stroke="black"/>
<path d="M63.9961,65.6046h -6.80315" fill="none" stroke="black"/>
<path d="M63.9961,63.2742h -6.80315" fill="none" stroke="black"/>
<path d="M63.9961,61.2187h -6.80315" fill="none" stroke="black"/>
<path d="M70.7992,59.3799h -13.6063" fill="none" stroke="black"/>
<path d="M63.9961,47.2832h -6.80315" fill="none" stroke="black"/>
<path d="M63.9961,40.207h -6.80315" fill="none" stroke="black"/>
<path d="M510.736,352.769v -313.572" fill="none" stroke="black"/>
<path d="M503.933,352.768h 6.80315" fill="none" stroke="black"/>
<path d="M503.933,349.587h 6.80315" fill="none" stroke="black"/>
<path d="M503.933,346.896h 6.80315" fill="none" stroke="black"/>
<path d="M503.933,344.566h 6.80315" fill="none" stroke="black"/>
<path d="M503.933,342.51h 6.80315" fill="none" stroke="black"/>
<path d="M497.13,340.672h 13.6063" fill="none" stroke="black"/>
<path d="M503.933,328.575h 6.80315" fill="none" stroke="black"/>
<path d="M503.933,321.499h 6.80315" fill="none" stroke="black"/>
<path d="M503.933,316.478h 6.80315" fill="none" stroke="black"/>
<path d="M503.933,312.584h 6.80315" fill="none" stroke="black"/>
<path d="M503.933,309.402h 6.80315" fill="none" stroke="black"/>
<path d="M503.933,306.712h 6.80315" fill="none" stroke="black"/>
<path d="M503.933,304.381h 6.80315" fill="none" stroke="black"/>
<path d="M503.933,302.326h 6.80315" fill="none" stroke="black"/>
<path d="M497.13,300.487h 13.6063" fill="none" stroke="black"/>
<path d="M503.933,288.39h 6.80315" fill="none" stroke="black"/>
<path d="M503.933,281.314h 6.80315" fill="none" stroke="black"/>
<path d="M503.933,276.294h 6.80315" fill="none" stroke="black"/>
<path d="M503.933,272.399h 6.80315" fill="none" stroke="black"/>
<path d="M503.933,269.218h 6.80315" fill="none" stroke="black"/>
<path d="M503.933,266.527h 6.80315" fill="none" stroke="black"/>
<path d="M503.933,264.197h 6.80315" fill="none" stroke="black"/>
<path d="M503.933,262.141h 6.80315" fill="none" stroke="black"/>
<path d="M497.13,260.303h 13.6063" fill="none" stroke="black"/>
<path d="M503.933,248.206h 6.80315" fill="none" stroke="black"/>
<path d="M503.933,241.13h 6.80315" fill="none" stroke="black"/>
<path d="M503.933,236.109h 6.80315" fill="none" stroke="black"/>
<path d="M503.933,232.215h 6.80315" fill="none" stroke="black"/>
<path d="M503.933,229.033h 6.80315" fill="none" stroke="black"/>
<path d="M503.933,226.343h 6.80315" fill="none" stroke="black"/>
<path d="M503.933,224.012h 6.80315" fill="none" stroke="black"/>
<path d="M503.933,221.957h 6.80315" fill="none" stroke="black"/>
<path d="M497.13,220.118h 13.6063" fill="none" stroke="black"/>
<path d="M503.933,208.021h 6.80315" fill="none" stroke="black"/>
<path d="M503.933,200.945h 6.80315" fill="none" stroke="black"/>
<path d="M503.933,195.925h 6.80315" fill="none" stroke="black"/>
<path d="M503.933,192.03h 6.80315" fill="none" stroke="black"/>
<path d="M503.933,188.848h 6.80315" fill="none" stroke="black"/>
<path d="M503.933,186.158h 6.80315" fill="none" stroke="black"/>
<path d="M503.933,183.828h 6.80315" fill="none" stroke="black"/>
<path d="M503.933,181.772h 6.80315" fill="none" stroke="black"/>
<path d="M497.13,179.934h 13.6063" fill="none" stroke="black"/>
<path d="M503.933,167.837h 6.80315" fill="none" stroke="black"/>
<path d="M503.933,160.761h 6.80315" fill="none" stroke="black"/>
<path d="M503.933,155.74h 6.80315" fill="none" stroke="black"/>
<path d="M503.933,151.846h 6.80315" fill="none" stroke="black"/>
<path d="M503.933,148.664h 6.80315" fill="none" stroke="black"/>
<path d="M503.933,145.974h 6.80315" fill="none" stroke="black"/>
<path d="M503.933,143.643h 6.80315" fill="none" stroke="black"/>
<path d="M503.933,141.588h 6.80315" fill="none" stroke="black"/>
<path d="M497.13,139.749h 13.6063" fill="none" stroke="black"/>
<path d="M503.933,127.652h 6.80315" fill="none" stroke="black"/>
<path d="M503.933,120.576h 6.80315" fill="none" stroke="black"/>
<path d="M503.933,115.556h 6.80315" fill="none" stroke="black"/>
<path d="M503.933,111.661h 6.80315" fill="none" stroke="black"/>
<path d="M503.933,108.479h 6.80315" fill="none" stroke="black"/>
<path d="M503.933,105.789h 6.80315" fill="none" stroke="black"/>
<path d="M503.933,103.459h 6.80315" fill="none" stroke="black"/>
<path d="M503.933,101.403h 6.80315" fill="none" stroke="black"/>
<path d="M497.13,99.5645h 13.6063" fill="none" stroke="black"/>
<path d="M503.933,87.4677h 6.80315" fill="none" stroke="black"/>
<path d="M503.933,80.3916h 6.80315" fill="none" stroke="black"/>
<path d="M503.933,75.371h 6.80315" fill="none" stroke="black"/>
<path d="M503.933,71.4767h 6.80315" fill="none" stroke="black"/>
<path d="M503.933,68.2948h 6.80315" fill="none" stroke="black"/>
<path d="M503.933,65.6046h 6.80315" fill="none" stroke="black"/>
<path d="M503.933,63.2742h 6.80315" fill="none" stroke="black"/>
<path d="M503.933,61.2187h 6.80315" fill="none" stroke="black"/>
<path d="M497.13,59.3799h 13.6063" fill="none" stroke="black"/>
<path d="M503.933,47.2832h 6.80315" fill="none" stroke="black"/>
<path d="M503.933,40.207h 6.80315" fill="none" stroke="black"/>
<text xml:space="preserve" x="388.489" y="26.131" fill="#7c99d1" font-size="24.4734" font-family="Helvetica">Preliminary</text></svg>
